<svg xmlns="http://www.w3.org/2000/svg" xmlns:xlink="http://www.w3.org/1999/xlink" width="63.993" height="62.005" viewBox="0 0 63.993 62.005">
  <defs>
    <linearGradient id="linear-gradient" x1="0.5" y1="1.1" x2="0.5" y2="-0.1" gradientUnits="objectBoundingBox">
      <stop offset="0" stop-color="#622ec3"/>
      <stop offset="0.25" stop-color="#4d65db"/>
      <stop offset="0.5" stop-color="#379aee"/>
      <stop offset="0.746" stop-color="#13ccd7"/>
      <stop offset="1" stop-color="#53e9f6"/>
    </linearGradient>
  </defs>
  <path id="icon" d="M3634.367,1188.623a1.25,1.25,0,0,1-.236-1.445l15.115-30.219,1.5-2.994a1.255,1.255,0,0,1,2.01-.326l16.659,16.629a1.252,1.252,0,0,1-.327,2.007l-33.272,16.584a1.256,1.256,0,0,1-1.447-.235Zm3.687-3.681,7.251-3.614-1.83-7.225Zm7.139-14.273,2.41,9.513,8.9-4.437-2.207-5.367a1.254,1.254,0,0,1,2.321-.95l2.136,5.2,7.651-3.814-14.2-14.171-.465.929,2.227,5.416a1.255,1.255,0,0,1-2.322.95l-1.393-3.391Zm42.55,2.042a5.076,5.076,0,1,1,5.075,5.068A5.077,5.077,0,0,1,3687.743,1172.711Zm2.509,0a2.567,2.567,0,1,0,2.566-2.563A2.569,2.569,0,0,0,3690.252,1172.711Zm-36.224-7.251a1.253,1.253,0,0,1,0,2.505A1.253,1.253,0,0,1,3654.028,1165.459Zm17.6-.873a1.285,1.285,0,0,1,0-1.771,25.658,25.658,0,0,1,4.762-4.6,10.241,10.241,0,0,1,5.6-1.942,13.189,13.189,0,0,1,5.595,1.588,9.056,9.056,0,0,0,4.836,1.212c1.123-.147,2.676-.8,3.089-1.889a1.283,1.283,0,0,1,1.542-.875,1.262,1.262,0,0,1,.876,1.541,6,6,0,0,1-4.245,3.511,8.917,8.917,0,0,1-5.61-.566c-1.729-.7-3.416-1.75-5.3-1.981-3.989-.49-7.048,3.072-9.369,5.772a1.1,1.1,0,0,1-.85.362A1.33,1.33,0,0,1,3671.633,1164.586Zm-4.054-7.383c-2.269-3.644-3.695-8.33-1.438-12.337a7.521,7.521,0,0,1,3.932-3.286,10.229,10.229,0,0,1,3.819-6.157,1.264,1.264,0,0,1,1.716.449,1.291,1.291,0,0,1-.45,1.713,7.1,7.1,0,0,0-2.406,3.606,5.35,5.35,0,0,1,2.509.848,5.721,5.721,0,0,1,2.558,4.087,4.249,4.249,0,0,1-2.075,4.344c-1.958.936-3.731-.453-4.665-2.124a9.669,9.669,0,0,1-1.169-3.936,5.7,5.7,0,0,0-2.246,3.45c-.646,2.853.6,5.7,2.083,8.079a1.232,1.232,0,0,1-1.144,1.853A1.177,1.177,0,0,1,3667.579,1157.2Zm4.816-13.175a6.962,6.962,0,0,0,.85,3.053c.381.684,1.1,1.745,1.782.772,1.17-1.668-.615-3.991-2.453-4.145-.062-.006-.123-.008-.186-.011C3672.389,1143.807,3672.389,1143.918,3672.4,1144.028Zm-14.077,9.137a4.865,4.865,0,0,1-3.449-4.343c-.486-4.15,3.409-6.934,4.907-10.394,1.686-3.9-1.82-6.808-4.624-8.9a1.28,1.28,0,0,1-.45-1.713,1.263,1.263,0,0,1,1.716-.449,19.749,19.749,0,0,1,4.94,4.659,7.753,7.753,0,0,1,1.265,5.631,13.783,13.783,0,0,1-2.811,5.429c-1.008,1.393-2.26,2.983-2.457,4.741a2.572,2.572,0,0,0,1.63,2.924,1.261,1.261,0,0,1-.318,2.462A1.37,1.37,0,0,1,3658.318,1153.166Zm24.6-3.62a1.253,1.253,0,0,1,0,2.5A1.253,1.253,0,0,1,3682.918,1149.546Zm4.016-.429a1.253,1.253,0,0,1,0,2.505A1.253,1.253,0,0,1,3686.934,1149.117Zm-2.451-3.195a1.253,1.253,0,0,1,0,2.5A1.253,1.253,0,0,1,3684.483,1145.922Zm-39.277-7.053a1.253,1.253,0,0,1,0,2.5A1.253,1.253,0,0,1,3645.206,1138.87Zm4.016-.428a1.253,1.253,0,0,1,0,2.5A1.253,1.253,0,0,1,3649.222,1138.442Zm35.432.754-5.044-5.036a1.25,1.25,0,0,1,0-1.771l5.043-5.037a1.257,1.257,0,0,1,1.775,0l5.046,5.037a1.253,1.253,0,0,1,0,1.772l-5.045,5.035a1.256,1.256,0,0,1-1.774,0Zm-2.384-5.921,3.27,3.265,3.272-3.265-3.272-3.265Zm-35.5,1.972a1.253,1.253,0,0,1,0,2.5A1.253,1.253,0,0,1,3646.771,1135.246Z" transform="translate(-3633.999 -1126.985)" fill="url(#linear-gradient)"/>
</svg>
